<svg xmlns="http://www.w3.org/2000/svg" width="220" height="220" viewBox="0 0 220 220" role="img" aria-label="RAB Rwanda logo style mark">
  <rect width="220" height="220" rx="28" fill="#ffffff"/>
  <circle cx="110" cy="104" r="86" fill="#fff" stroke="#111" stroke-width="3"/>
  <path d="M33 44c18-20 45-32 77-32s59 12 77 32" fill="none" stroke="#111" stroke-width="5" stroke-linecap="round"/>
  <path d="M38 88c6-26 11-37 24-48M41 98c5-23 13-33 25-44M46 108c4-21 13-31 24-41" stroke="#0b9f54" stroke-width="3" fill="none"/>
  <path d="M182 88c-6-26-11-37-24-48M179 98c-5-23-13-33-25-44M174 108c-4-21-13-31-24-41" stroke="#0b9f54" stroke-width="3" fill="none"/>
  <text x="110" y="86" text-anchor="middle" font-family="Inter, Arial" font-size="58" font-weight="900" fill="#0b9f54" letter-spacing="4">RAB</text>
  <line x1="52" y1="98" x2="168" y2="98" stroke="#111" stroke-width="2"/>
  <line x1="52" y1="136" x2="168" y2="136" stroke="#111" stroke-width="2"/>
  <path d="M88 146c13 9 31 9 44 0" stroke="#00a4d6" stroke-width="4" fill="none"/>
  <text x="110" y="164" text-anchor="middle" font-family="Inter, Arial" font-size="20" letter-spacing="4" fill="#111">RWANDA</text>
  <text x="110" y="204" text-anchor="middle" font-family="Inter, Arial" font-size="11" fill="#111">AGRICULTURE AND ANIMAL RESOURCES DEVELOPMENT BOARD</text>
</svg>
